<svg width="221" height="112" viewBox="0 0 221 112" fill="none" xmlns="http://www.w3.org/2000/svg">
<path d="M30.2727 62.3182C28.7727 62.3182 27.4356 62.0606 26.2614 61.5455C25.0947 61.0303 24.1667 60.3144 23.4773 59.3977C22.7955 58.4735 22.4242 57.4015 22.3636 56.1818H25.2273C25.2879 56.9318 25.5455 57.5795 26 58.125C26.4545 58.6629 27.0492 59.0795 27.7841 59.375C28.5189 59.6705 29.3333 59.8182 30.2273 59.8182C31.2273 59.8182 32.1136 59.6439 32.8864 59.2955C33.6591 58.947 34.2652 58.4621 34.7045 57.8409C35.1439 57.2197 35.3636 56.5 35.3636 55.6818C35.3636 54.8258 35.1515 54.072 34.7273 53.4205C34.303 52.7614 33.6818 52.2462 32.8636 51.875C32.0455 51.5038 31.0455 51.3182 29.8636 51.3182H28V48.8182H29.8636C30.7879 48.8182 31.5985 48.6515 32.2955 48.3182C33 47.9848 33.5492 47.5152 33.9432 46.9091C34.3447 46.303 34.5455 45.5909 34.5455 44.7727C34.5455 43.9848 34.3712 43.2992 34.0227 42.7159C33.6742 42.1326 33.1818 41.678 32.5455 41.3523C31.9167 41.0265 31.1742 40.8636 30.3182 40.8636C29.5152 40.8636 28.7576 41.0114 28.0455 41.3068C27.3409 41.5947 26.7652 42.0152 26.3182 42.5682C25.8712 43.1136 25.6288 43.7727 25.5909 44.5455H22.8636C22.9091 43.3258 23.2765 42.2576 23.9659 41.3409C24.6553 40.4167 25.5568 39.697 26.6705 39.1818C27.7917 38.6667 29.0227 38.4091 30.3636 38.4091C31.803 38.4091 33.0379 38.7008 34.0682 39.2841C35.0985 39.8598 35.8902 40.6212 36.4432 41.5682C36.9962 42.5152 37.2727 43.5379 37.2727 44.6364C37.2727 45.947 36.928 47.0644 36.2386 47.9886C35.5568 48.9129 34.6288 49.553 33.4545 49.9091V50.0909C34.9242 50.3333 36.072 50.9583 36.8977 51.9659C37.7235 52.9659 38.1364 54.2045 38.1364 55.6818C38.1364 56.947 37.7917 58.0833 37.1023 59.0909C36.4205 60.0909 35.4886 60.8788 34.3068 61.4545C33.125 62.0303 31.7803 62.3182 30.2727 62.3182ZM42.7841 62V59.9545L50.4659 51.5455C51.3674 50.5606 52.1098 49.7045 52.6932 48.9773C53.2765 48.2424 53.7083 47.553 53.9886 46.9091C54.2765 46.2576 54.4205 45.5758 54.4205 44.8636C54.4205 44.0455 54.2235 43.3371 53.8295 42.7386C53.4432 42.1402 52.9129 41.678 52.2386 41.3523C51.5644 41.0265 50.8068 40.8636 49.9659 40.8636C49.072 40.8636 48.2917 41.0492 47.625 41.4205C46.9659 41.7841 46.4545 42.2955 46.0909 42.9545C45.7348 43.6136 45.5568 44.3864 45.5568 45.2727H42.875C42.875 43.9091 43.1894 42.7121 43.8182 41.6818C44.447 40.6515 45.303 39.8485 46.3864 39.2727C47.4773 38.697 48.7008 38.4091 50.0568 38.4091C51.4205 38.4091 52.6288 38.697 53.6818 39.2727C54.7348 39.8485 55.5606 40.625 56.1591 41.6023C56.7576 42.5795 57.0568 43.6667 57.0568 44.8636C57.0568 45.7197 56.9015 46.5568 56.5909 47.375C56.2879 48.1856 55.7576 49.0909 55 50.0909C54.25 51.0833 53.2083 52.2955 51.875 53.7273L46.6477 59.3182V59.5H57.4659V62H42.7841ZM78.5682 38.4091C79.5227 38.4167 80.4773 38.5985 81.4318 38.9545C82.3864 39.3106 83.2576 39.9015 84.0455 40.7273C84.8333 41.5455 85.4659 42.6629 85.9432 44.0795C86.4205 45.4962 86.6591 47.2727 86.6591 49.4091C86.6591 51.4773 86.4621 53.3144 86.0682 54.9205C85.6818 56.5189 85.1212 57.8674 84.3864 58.9659C83.6591 60.0644 82.7727 60.8977 81.7273 61.4659C80.6894 62.0341 79.5152 62.3182 78.2045 62.3182C76.9015 62.3182 75.7386 62.0606 74.7159 61.5455C73.7008 61.0227 72.8674 60.2992 72.2159 59.375C71.572 58.4432 71.1591 57.3636 70.9773 56.1364H73.75C74 57.2045 74.4962 58.0871 75.2386 58.7841C75.9886 59.4735 76.9773 59.8182 78.2045 59.8182C80 59.8182 81.4167 59.0341 82.4545 57.4659C83.5 55.8977 84.0227 53.6818 84.0227 50.8182H83.8409C83.4167 51.4545 82.9129 52.0038 82.3295 52.4659C81.7462 52.928 81.0985 53.2841 80.3864 53.5341C79.6742 53.7841 78.9167 53.9091 78.1136 53.9091C76.7803 53.9091 75.5568 53.5795 74.4432 52.9205C73.3371 52.2538 72.4508 51.3409 71.7841 50.1818C71.125 49.0152 70.7955 47.6818 70.7955 46.1818C70.7955 44.7576 71.1136 43.4545 71.75 42.2727C72.3939 41.0833 73.2955 40.1364 74.4545 39.4318C75.6212 38.7273 76.9924 38.3864 78.5682 38.4091ZM78.5682 40.9091C77.6136 40.9091 76.7538 41.1477 75.9886 41.625C75.2311 42.0947 74.6288 42.7311 74.1818 43.5341C73.7424 44.3295 73.5227 45.2121 73.5227 46.1818C73.5227 47.1515 73.7348 48.0341 74.1591 48.8295C74.5909 49.6174 75.178 50.2462 75.9205 50.7159C76.6705 51.178 77.5227 51.4091 78.4773 51.4091C79.197 51.4091 79.8674 51.2689 80.4886 50.9886C81.1098 50.7008 81.6515 50.3106 82.1136 49.8182C82.5833 49.3182 82.9508 48.7538 83.2159 48.125C83.4811 47.4886 83.6136 46.8258 83.6136 46.1364C83.6136 45.2273 83.3939 44.375 82.9545 43.5795C82.5227 42.7841 81.9242 42.1402 81.1591 41.6477C80.4015 41.1553 79.5379 40.9091 78.5682 40.9091ZM98.5369 38.4091C99.4915 38.4167 100.446 38.5985 101.401 38.9545C102.355 39.3106 103.226 39.9015 104.014 40.7273C104.802 41.5455 105.435 42.6629 105.912 44.0795C106.389 45.4962 106.628 47.2727 106.628 49.4091C106.628 51.4773 106.431 53.3144 106.037 54.9205C105.651 56.5189 105.09 57.8674 104.355 58.9659C103.628 60.0644 102.741 60.8977 101.696 61.4659C100.658 62.0341 99.4839 62.3182 98.1733 62.3182C96.8703 62.3182 95.7074 62.0606 94.6847 61.5455C93.6695 61.0227 92.8362 60.2992 92.1847 59.375C91.5407 58.4432 91.1278 57.3636 90.946 56.1364H93.7188C93.9688 57.2045 94.465 58.0871 95.2074 58.7841C95.9574 59.4735 96.946 59.8182 98.1733 59.8182C99.9688 59.8182 101.385 59.0341 102.423 57.4659C103.469 55.8977 103.991 53.6818 103.991 50.8182H103.81C103.385 51.4545 102.882 52.0038 102.298 52.4659C101.715 52.928 101.067 53.2841 100.355 53.5341C99.643 53.7841 98.8854 53.9091 98.0824 53.9091C96.7491 53.9091 95.5256 53.5795 94.4119 52.9205C93.3059 52.2538 92.4195 51.3409 91.7528 50.1818C91.0938 49.0152 90.7642 47.6818 90.7642 46.1818C90.7642 44.7576 91.0824 43.4545 91.7188 42.2727C92.3627 41.0833 93.2642 40.1364 94.4233 39.4318C95.59 38.7273 96.9612 38.3864 98.5369 38.4091ZM98.5369 40.9091C97.5824 40.9091 96.7225 41.1477 95.9574 41.625C95.1998 42.0947 94.5975 42.7311 94.1506 43.5341C93.7112 44.3295 93.4915 45.2121 93.4915 46.1818C93.4915 47.1515 93.7036 48.0341 94.1278 48.8295C94.5597 49.6174 95.1468 50.2462 95.8892 50.7159C96.6392 51.178 97.4915 51.4091 98.446 51.4091C99.1657 51.4091 99.8362 51.2689 100.457 50.9886C101.079 50.7008 101.62 50.3106 102.082 49.8182C102.552 49.3182 102.92 48.7538 103.185 48.125C103.45 47.4886 103.582 46.8258 103.582 46.1364C103.582 45.2273 103.363 44.375 102.923 43.5795C102.491 42.7841 101.893 42.1402 101.128 41.6477C100.37 41.1553 99.5066 40.9091 98.5369 40.9091ZM118.506 38.4091C119.46 38.4167 120.415 38.5985 121.369 38.9545C122.324 39.3106 123.195 39.9015 123.983 40.7273C124.771 41.5455 125.403 42.6629 125.881 44.0795C126.358 45.4962 126.597 47.2727 126.597 49.4091C126.597 51.4773 126.4 53.3144 126.006 54.9205C125.619 56.5189 125.059 57.8674 124.324 58.9659C123.597 60.0644 122.71 60.8977 121.665 61.4659C120.627 62.0341 119.453 62.3182 118.142 62.3182C116.839 62.3182 115.676 62.0606 114.653 61.5455C113.638 61.0227 112.805 60.2992 112.153 59.375C111.509 58.4432 111.097 57.3636 110.915 56.1364H113.688C113.938 57.2045 114.434 58.0871 115.176 58.7841C115.926 59.4735 116.915 59.8182 118.142 59.8182C119.938 59.8182 121.354 59.0341 122.392 57.4659C123.438 55.8977 123.96 53.6818 123.96 50.8182H123.778C123.354 51.4545 122.85 52.0038 122.267 52.4659C121.684 52.928 121.036 53.2841 120.324 53.5341C119.612 53.7841 118.854 53.9091 118.051 53.9091C116.718 53.9091 115.494 53.5795 114.381 52.9205C113.275 52.2538 112.388 51.3409 111.722 50.1818C111.062 49.0152 110.733 47.6818 110.733 46.1818C110.733 44.7576 111.051 43.4545 111.688 42.2727C112.331 41.0833 113.233 40.1364 114.392 39.4318C115.559 38.7273 116.93 38.3864 118.506 38.4091ZM118.506 40.9091C117.551 40.9091 116.691 41.1477 115.926 41.625C115.169 42.0947 114.566 42.7311 114.119 43.5341C113.68 44.3295 113.46 45.2121 113.46 46.1818C113.46 47.1515 113.672 48.0341 114.097 48.8295C114.528 49.6174 115.116 50.2462 115.858 50.7159C116.608 51.178 117.46 51.4091 118.415 51.4091C119.134 51.4091 119.805 51.2689 120.426 50.9886C121.047 50.7008 121.589 50.3106 122.051 49.8182C122.521 49.3182 122.888 48.7538 123.153 48.125C123.419 47.4886 123.551 46.8258 123.551 46.1364C123.551 45.2273 123.331 44.375 122.892 43.5795C122.46 42.7841 121.862 42.1402 121.097 41.6477C120.339 41.1553 119.475 40.9091 118.506 40.9091ZM150.884 44.5455V47.0455H142.793V62H140.111V44.5455H150.884ZM154.798 68.5455V44.5455H157.389V47.3182H157.707C157.904 47.0152 158.177 46.6288 158.526 46.1591C158.882 45.6818 159.389 45.2576 160.048 44.8864C160.715 44.5076 161.616 44.3182 162.753 44.3182C164.223 44.3182 165.518 44.6856 166.639 45.4205C167.76 46.1553 168.635 47.197 169.264 48.5455C169.893 49.8939 170.207 51.4848 170.207 53.3182C170.207 55.1667 169.893 56.7689 169.264 58.125C168.635 59.4735 167.764 60.5189 166.651 61.2614C165.537 61.9962 164.253 62.3636 162.798 62.3636C161.677 62.3636 160.779 62.178 160.105 61.8068C159.431 61.428 158.912 61 158.548 60.5227C158.185 60.0379 157.904 59.6364 157.707 59.3182H157.48V68.5455H154.798ZM157.435 53.2727C157.435 54.5909 157.628 55.7538 158.014 56.7614C158.401 57.7614 158.965 58.5455 159.707 59.1136C160.45 59.6742 161.359 59.9545 162.435 59.9545C163.556 59.9545 164.491 59.6591 165.241 59.0682C165.999 58.4697 166.567 57.6667 166.946 56.6591C167.332 55.6439 167.526 54.5152 167.526 53.2727C167.526 52.0455 167.336 50.9394 166.957 49.9545C166.586 48.9621 166.022 48.178 165.264 47.6023C164.514 47.0189 163.571 46.7273 162.435 46.7273C161.344 46.7273 160.427 47.0038 159.685 47.5568C158.942 48.1023 158.382 48.8674 158.003 49.8523C157.624 50.8295 157.435 51.9697 157.435 53.2727ZM185.98 52.0455V54.5455H176.344V52.0455H185.98ZM176.98 44.5455V62H174.298V44.5455H176.98ZM188.026 44.5455V62H185.344V44.5455H188.026ZM194.878 62.1818C194.317 62.1818 193.836 61.9811 193.435 61.5795C193.033 61.178 192.832 60.697 192.832 60.1364C192.832 59.5758 193.033 59.0947 193.435 58.6932C193.836 58.2917 194.317 58.0909 194.878 58.0909C195.438 58.0909 195.92 58.2917 196.321 58.6932C196.723 59.0947 196.923 59.5758 196.923 60.1364C196.923 60.5076 196.829 60.8485 196.639 61.1591C196.457 61.4697 196.211 61.7197 195.901 61.9091C195.598 62.0909 195.257 62.1818 194.878 62.1818Z" fill="#131313"/>
<path d="M220.5 50C220.5 63.4893 208.393 75.8663 188.429 84.8998C168.511 93.9125 140.959 99.5 110.5 99.5C80.0406 99.5 52.4889 93.9125 32.5708 84.8998C12.6068 75.8663 0.5 63.4893 0.5 50C0.5 36.5107 12.6068 24.1337 32.5708 15.1002C52.4889 6.08749 80.0406 0.5 110.5 0.5C140.959 0.5 168.511 6.08749 188.429 15.1002C208.393 24.1337 220.5 36.5107 220.5 50Z" stroke="#FF4040"/>
<path d="M220.5 62C220.5 75.4893 208.393 87.8663 188.429 96.8998C168.511 105.913 140.959 111.5 110.5 111.5C80.0406 111.5 52.4889 105.913 32.5708 96.8998C12.6068 87.8663 0.5 75.4893 0.5 62C0.5 48.5107 12.6068 36.1337 32.5708 27.1002C52.4889 18.0875 80.0406 12.5 110.5 12.5C140.959 12.5 168.511 18.0875 188.429 27.1002C208.393 36.1337 220.5 48.5107 220.5 62Z" stroke="#FF4040"/>
</svg>
